<mxfile host="www.draw.io" modified="2020-01-07T07:16:26.847Z" agent="Mozilla/5.0 (Windows NT 10.0; Win64; x64) AppleWebKit/537.36 (KHTML, like Gecko) Chrome/71.0.3578.98 Safari/537.36" etag="9DgKRsS8UWKCAf-taX7U" version="12.4.9" type="github">
  <diagram id="XYWrbKr7a0vxvjz_XuW-" name="Page-1">
    <mxGraphModel dx="949" dy="714" grid="1" gridSize="10" guides="1" tooltips="1" connect="1" arrows="1" fold="1" page="1" pageScale="1" pageWidth="827" pageHeight="1169" math="0" shadow="0">
      <root>
        <mxCell id="0"/>
        <mxCell id="1" parent="0"/>
        <mxCell id="8ZSwSfP0t6tdBhXG2DrL-58" value="" style="group" parent="1" vertex="1" connectable="0">
          <mxGeometry x="40" y="30" width="671" height="510" as="geometry"/>
        </mxCell>
        <mxCell id="8ZSwSfP0t6tdBhXG2DrL-136" value="" style="group" parent="8ZSwSfP0t6tdBhXG2DrL-58" vertex="1" connectable="0">
          <mxGeometry width="671" height="339" as="geometry"/>
        </mxCell>
        <mxCell id="8ZSwSfP0t6tdBhXG2DrL-134" value="" style="group" parent="8ZSwSfP0t6tdBhXG2DrL-136" vertex="1" connectable="0">
          <mxGeometry width="671" height="339" as="geometry"/>
        </mxCell>
        <mxCell id="8ZSwSfP0t6tdBhXG2DrL-133" value="" style="group" parent="8ZSwSfP0t6tdBhXG2DrL-134" vertex="1" connectable="0">
          <mxGeometry width="671" height="339" as="geometry"/>
        </mxCell>
        <mxCell id="8ZSwSfP0t6tdBhXG2DrL-46" value="구독정보&lt;br&gt;Database" style="shape=datastore;whiteSpace=wrap;html=1;" parent="8ZSwSfP0t6tdBhXG2DrL-133" vertex="1">
          <mxGeometry x="50" y="259" width="60" height="60" as="geometry"/>
        </mxCell>
        <mxCell id="8ZSwSfP0t6tdBhXG2DrL-3" value="인트라넷 로그인" style="pointerEvents=1;shadow=0;dashed=0;html=1;strokeColor=none;fillColor=#505050;labelPosition=center;verticalLabelPosition=bottom;verticalAlign=top;outlineConnect=0;align=center;shape=mxgraph.office.sites.subsite;" parent="8ZSwSfP0t6tdBhXG2DrL-133" vertex="1">
          <mxGeometry x="130" y="9" width="160" height="110" as="geometry"/>
        </mxCell>
        <mxCell id="8ZSwSfP0t6tdBhXG2DrL-7" style="edgeStyle=orthogonalEdgeStyle;rounded=0;orthogonalLoop=1;jettySize=auto;html=1;" parent="8ZSwSfP0t6tdBhXG2DrL-133" source="8ZSwSfP0t6tdBhXG2DrL-4" target="8ZSwSfP0t6tdBhXG2DrL-3" edge="1">
          <mxGeometry relative="1" as="geometry"/>
        </mxCell>
        <mxCell id="8ZSwSfP0t6tdBhXG2DrL-4" value="" style="verticalLabelPosition=bottom;html=1;verticalAlign=top;align=center;strokeColor=none;fillColor=#00BEF2;shape=mxgraph.azure.user;" parent="8ZSwSfP0t6tdBhXG2DrL-133" vertex="1">
          <mxGeometry y="39" width="47.5" height="50" as="geometry"/>
        </mxCell>
        <mxCell id="8ZSwSfP0t6tdBhXG2DrL-15" value="서비스약관&lt;br&gt;개인정보동의&lt;br&gt;광고/야간 수신 동의&lt;br&gt;구독 신청" style="shape=image;html=1;verticalAlign=top;verticalLabelPosition=bottom;labelBackgroundColor=#ffffff;imageAspect=0;aspect=fixed;image=https://cdn3.iconfinder.com/data/icons/streamline-icon-set-free-pack/48/Streamline-17-128.png" parent="8ZSwSfP0t6tdBhXG2DrL-133" vertex="1">
          <mxGeometry x="430" width="128" height="128" as="geometry"/>
        </mxCell>
        <mxCell id="8ZSwSfP0t6tdBhXG2DrL-16" value="구독신청&lt;br&gt;팝업 호출" style="edgeStyle=orthogonalEdgeStyle;rounded=0;orthogonalLoop=1;jettySize=auto;html=1;exitX=1;exitY=0.5;exitDx=0;exitDy=0;exitPerimeter=0;" parent="8ZSwSfP0t6tdBhXG2DrL-133" source="8ZSwSfP0t6tdBhXG2DrL-3" target="8ZSwSfP0t6tdBhXG2DrL-15" edge="1">
          <mxGeometry relative="1" as="geometry"/>
        </mxCell>
        <mxCell id="8ZSwSfP0t6tdBhXG2DrL-26" value="" style="strokeWidth=2;html=1;shape=mxgraph.flowchart.annotation_2;align=left;labelPosition=right;pointerEvents=1;rotation=90;" parent="8ZSwSfP0t6tdBhXG2DrL-133" vertex="1">
          <mxGeometry x="469" y="109" width="50" height="220" as="geometry"/>
        </mxCell>
        <mxCell id="8ZSwSfP0t6tdBhXG2DrL-27" value="미동의하거나&lt;br&gt;구독신청을 &lt;br&gt;하지않을 경우&lt;br&gt;PUSH를&amp;nbsp;&lt;br&gt;전송 하지않음" style="text;html=1;strokeColor=none;fillColor=none;align=center;verticalAlign=middle;whiteSpace=wrap;rounded=0;" parent="8ZSwSfP0t6tdBhXG2DrL-133" vertex="1">
          <mxGeometry x="540" y="249" width="131" height="90" as="geometry"/>
        </mxCell>
        <mxCell id="8ZSwSfP0t6tdBhXG2DrL-51" style="edgeStyle=none;rounded=0;orthogonalLoop=1;jettySize=auto;html=1;entryX=1;entryY=0.5;entryDx=0;entryDy=0;endArrow=classic;endFill=1;" parent="8ZSwSfP0t6tdBhXG2DrL-133" source="8ZSwSfP0t6tdBhXG2DrL-29" target="8ZSwSfP0t6tdBhXG2DrL-46" edge="1">
          <mxGeometry relative="1" as="geometry"/>
        </mxCell>
        <mxCell id="8ZSwSfP0t6tdBhXG2DrL-52" value="로그인된 사용자의&amp;nbsp;&lt;br&gt;구독 정보 저장" style="text;html=1;align=center;verticalAlign=middle;resizable=0;points=[];labelBackgroundColor=#ffffff;" parent="8ZSwSfP0t6tdBhXG2DrL-51" vertex="1" connectable="0">
          <mxGeometry x="-0.3443" relative="1" as="geometry">
            <mxPoint x="-40" as="offset"/>
          </mxGeometry>
        </mxCell>
        <mxCell id="8ZSwSfP0t6tdBhXG2DrL-29" value="전체 동의 후&amp;nbsp;&lt;br&gt;구독하면&lt;br&gt;PUSH 전송&lt;br&gt;가능함&lt;br&gt;" style="text;html=1;strokeColor=none;fillColor=none;align=center;verticalAlign=middle;whiteSpace=wrap;rounded=0;" parent="8ZSwSfP0t6tdBhXG2DrL-133" vertex="1">
          <mxGeometry x="318" y="249" width="131" height="80" as="geometry"/>
        </mxCell>
        <mxCell id="8ZSwSfP0t6tdBhXG2DrL-33" value="동의" style="text;html=1;strokeColor=none;fillColor=none;align=center;verticalAlign=middle;whiteSpace=wrap;rounded=0;" parent="8ZSwSfP0t6tdBhXG2DrL-133" vertex="1">
          <mxGeometry x="380" y="190" width="40" height="20" as="geometry"/>
        </mxCell>
        <mxCell id="8ZSwSfP0t6tdBhXG2DrL-44" value="미동의" style="text;html=1;strokeColor=none;fillColor=none;align=center;verticalAlign=middle;whiteSpace=wrap;rounded=0;" parent="8ZSwSfP0t6tdBhXG2DrL-133" vertex="1">
          <mxGeometry x="560" y="190" width="40" height="20" as="geometry"/>
        </mxCell>
        <mxCell id="8ZSwSfP0t6tdBhXG2DrL-125" value="&lt;h1&gt;푸시 발신방법&lt;/h1&gt;&lt;p&gt;푸시 발신 방법은&lt;/p&gt;&lt;p&gt;푸시요청 테이블에&lt;/p&gt;&lt;p&gt;INSERT만 하시면&amp;nbsp;&lt;span&gt;됩니다.&lt;/span&gt;&lt;/p&gt;&lt;p&gt;(일반적인 SMS 전송방법과 동일)&lt;/p&gt;" style="text;html=1;strokeColor=none;fillColor=none;spacing=5;spacingTop=-20;whiteSpace=wrap;overflow=hidden;rounded=0;" parent="1" vertex="1">
          <mxGeometry x="660" y="595.25" width="190" height="154.75" as="geometry"/>
        </mxCell>
        <mxCell id="8ZSwSfP0t6tdBhXG2DrL-131" value="" style="group" parent="1" vertex="1" connectable="0">
          <mxGeometry x="40" y="595.25" width="600" height="598.75" as="geometry"/>
        </mxCell>
        <mxCell id="8ZSwSfP0t6tdBhXG2DrL-129" value="" style="group" parent="8ZSwSfP0t6tdBhXG2DrL-131" vertex="1" connectable="0">
          <mxGeometry width="600" height="598.75" as="geometry"/>
        </mxCell>
        <mxCell id="8ZSwSfP0t6tdBhXG2DrL-124" value="" style="group" parent="8ZSwSfP0t6tdBhXG2DrL-129" vertex="1" connectable="0">
          <mxGeometry width="600" height="542.3800000000001" as="geometry"/>
        </mxCell>
        <mxCell id="8ZSwSfP0t6tdBhXG2DrL-61" value="푸시요청&lt;br&gt;Database" style="shape=datastore;whiteSpace=wrap;html=1;" parent="8ZSwSfP0t6tdBhXG2DrL-124" vertex="1">
          <mxGeometry x="160" y="69.75" width="60" height="60" as="geometry"/>
        </mxCell>
        <mxCell id="8ZSwSfP0t6tdBhXG2DrL-76" value="Database에 &lt;br&gt;Insert" style="edgeStyle=none;rounded=0;orthogonalLoop=1;jettySize=auto;html=1;entryX=0;entryY=0.5;entryDx=0;entryDy=0;endArrow=classic;endFill=1;" parent="8ZSwSfP0t6tdBhXG2DrL-124" source="8ZSwSfP0t6tdBhXG2DrL-72" target="8ZSwSfP0t6tdBhXG2DrL-61" edge="1">
          <mxGeometry relative="1" as="geometry"/>
        </mxCell>
        <mxCell id="8ZSwSfP0t6tdBhXG2DrL-72" value="관리자" style="verticalLabelPosition=bottom;html=1;verticalAlign=top;align=center;strokeColor=none;fillColor=#00BEF2;shape=mxgraph.azure.user;" parent="8ZSwSfP0t6tdBhXG2DrL-124" vertex="1">
          <mxGeometry y="33.75" width="47.5" height="50" as="geometry"/>
        </mxCell>
        <mxCell id="8ZSwSfP0t6tdBhXG2DrL-77" value="Database에&lt;br&gt;Insert" style="edgeStyle=none;rounded=0;orthogonalLoop=1;jettySize=auto;html=1;entryX=0;entryY=0.5;entryDx=0;entryDy=0;endArrow=classic;endFill=1;" parent="8ZSwSfP0t6tdBhXG2DrL-124" source="8ZSwSfP0t6tdBhXG2DrL-73" target="8ZSwSfP0t6tdBhXG2DrL-61" edge="1">
          <mxGeometry relative="1" as="geometry"/>
        </mxCell>
        <mxCell id="8ZSwSfP0t6tdBhXG2DrL-73" value="담당자" style="verticalLabelPosition=bottom;html=1;verticalAlign=top;align=center;strokeColor=none;fillColor=#00BEF2;shape=mxgraph.azure.user;" parent="8ZSwSfP0t6tdBhXG2DrL-124" vertex="1">
          <mxGeometry y="113.75" width="47.5" height="50" as="geometry"/>
        </mxCell>
        <mxCell id="8ZSwSfP0t6tdBhXG2DrL-79" value="구독정보&lt;br&gt;Database" style="shape=datastore;whiteSpace=wrap;html=1;" parent="8ZSwSfP0t6tdBhXG2DrL-124" vertex="1">
          <mxGeometry x="520" y="334.75" width="60" height="60" as="geometry"/>
        </mxCell>
        <mxCell id="8ZSwSfP0t6tdBhXG2DrL-82" value="푸시 전송&lt;br&gt;요청이 왔을 경우" style="shape=image;html=1;verticalAlign=top;verticalLabelPosition=bottom;labelBackgroundColor=#ffffff;imageAspect=0;aspect=fixed;image=https://cdn2.iconfinder.com/data/icons/font-awesome/1792/exclamation-circle-128.png" parent="8ZSwSfP0t6tdBhXG2DrL-124" vertex="1">
          <mxGeometry x="348" y="224.75" width="64" height="64" as="geometry"/>
        </mxCell>
        <mxCell id="8ZSwSfP0t6tdBhXG2DrL-84" value="전송결과&lt;br&gt;Database" style="shape=datastore;whiteSpace=wrap;html=1;" parent="8ZSwSfP0t6tdBhXG2DrL-124" vertex="1">
          <mxGeometry y="384.75" width="60" height="60" as="geometry"/>
        </mxCell>
        <mxCell id="8ZSwSfP0t6tdBhXG2DrL-94" style="edgeStyle=none;rounded=1;jumpStyle=gap;orthogonalLoop=1;jettySize=auto;html=1;entryX=1;entryY=0.5;entryDx=0;entryDy=0;endArrow=classic;endFill=1;strokeColor=#000000;exitX=0;exitY=0.5;exitDx=0;exitDy=0;" parent="8ZSwSfP0t6tdBhXG2DrL-124" source="8ZSwSfP0t6tdBhXG2DrL-98" target="8ZSwSfP0t6tdBhXG2DrL-61" edge="1">
          <mxGeometry relative="1" as="geometry">
            <mxPoint x="300" y="99.17857142857133" as="sourcePoint"/>
          </mxGeometry>
        </mxCell>
        <mxCell id="8ZSwSfP0t6tdBhXG2DrL-105" value="" style="group" parent="8ZSwSfP0t6tdBhXG2DrL-124" vertex="1" connectable="0">
          <mxGeometry x="280" width="320" height="199.5" as="geometry"/>
        </mxCell>
        <mxCell id="8ZSwSfP0t6tdBhXG2DrL-98" value="" style="rounded=1;arcSize=10;strokeColor=none;fillColor=#DBDBDB;gradientColor=none;" parent="8ZSwSfP0t6tdBhXG2DrL-105" vertex="1">
          <mxGeometry width="320" height="199.5" as="geometry"/>
        </mxCell>
        <mxCell id="8ZSwSfP0t6tdBhXG2DrL-99" value="푸시요청&lt;br&gt;감시 Service" style="html=1;whiteSpace=wrap;rounded=1;" parent="8ZSwSfP0t6tdBhXG2DrL-105" vertex="1">
          <mxGeometry x="40" y="59.75" width="120" height="80" as="geometry"/>
        </mxCell>
        <mxCell id="8ZSwSfP0t6tdBhXG2DrL-100" value="" style="shape=mxgraph.bpmn.timer_start;perimeter=ellipsePerimeter;html=1;verticalLabelPosition=bottom;labelBackgroundColor=#ffffff;verticalAlign=top;outlineConnect=0;" parent="8ZSwSfP0t6tdBhXG2DrL-99" vertex="1">
          <mxGeometry x="1" y="1" width="30" height="30" relative="1" as="geometry">
            <mxPoint x="-40" y="-15" as="offset"/>
          </mxGeometry>
        </mxCell>
        <mxCell id="8ZSwSfP0t6tdBhXG2DrL-101" value="푸시서버" style="aspect=fixed;perimeter=ellipsePerimeter;html=1;align=center;shadow=0;dashed=0;spacingTop=3;image;image=img/lib/active_directory/generic_server.svg;" parent="8ZSwSfP0t6tdBhXG2DrL-105" vertex="1">
          <mxGeometry x="210" y="34.75" width="72.8" height="130" as="geometry"/>
        </mxCell>
        <mxCell id="8ZSwSfP0t6tdBhXG2DrL-95" style="edgeStyle=none;rounded=1;jumpStyle=gap;orthogonalLoop=1;jettySize=auto;html=1;entryX=0;entryY=0.5;entryDx=0;entryDy=0;endArrow=classic;endFill=1;strokeColor=#000000;" parent="8ZSwSfP0t6tdBhXG2DrL-124" source="8ZSwSfP0t6tdBhXG2DrL-61" target="8ZSwSfP0t6tdBhXG2DrL-98" edge="1">
          <mxGeometry relative="1" as="geometry">
            <mxPoint x="300" y="98.75" as="targetPoint"/>
          </mxGeometry>
        </mxCell>
        <mxCell id="8ZSwSfP0t6tdBhXG2DrL-106" style="edgeStyle=none;rounded=1;jumpStyle=gap;orthogonalLoop=1;jettySize=auto;html=1;endArrow=classic;endFill=1;strokeColor=#000000;" parent="8ZSwSfP0t6tdBhXG2DrL-124" source="8ZSwSfP0t6tdBhXG2DrL-99" target="8ZSwSfP0t6tdBhXG2DrL-82" edge="1">
          <mxGeometry relative="1" as="geometry"/>
        </mxCell>
        <mxCell id="8ZSwSfP0t6tdBhXG2DrL-107" value="푸시요청&lt;br&gt;Database" style="shape=datastore;whiteSpace=wrap;html=1;" parent="8ZSwSfP0t6tdBhXG2DrL-124" vertex="1">
          <mxGeometry x="520" y="439.75" width="60" height="60" as="geometry"/>
        </mxCell>
        <mxCell id="8ZSwSfP0t6tdBhXG2DrL-116" style="edgeStyle=none;rounded=1;jumpStyle=gap;orthogonalLoop=1;jettySize=auto;html=1;entryX=0;entryY=0.5;entryDx=0;entryDy=0;endArrow=classic;endFill=1;strokeColor=#000000;" parent="8ZSwSfP0t6tdBhXG2DrL-124" source="8ZSwSfP0t6tdBhXG2DrL-109" target="8ZSwSfP0t6tdBhXG2DrL-79" edge="1">
          <mxGeometry relative="1" as="geometry"/>
        </mxCell>
        <mxCell id="8ZSwSfP0t6tdBhXG2DrL-119" style="edgeStyle=none;rounded=1;jumpStyle=gap;orthogonalLoop=1;jettySize=auto;html=1;endArrow=classic;endFill=1;strokeColor=#000000;exitX=1.025;exitY=0.6;exitDx=0;exitDy=0;exitPerimeter=0;" parent="8ZSwSfP0t6tdBhXG2DrL-124" source="8ZSwSfP0t6tdBhXG2DrL-109" target="8ZSwSfP0t6tdBhXG2DrL-107" edge="1">
          <mxGeometry relative="1" as="geometry"/>
        </mxCell>
        <mxCell id="8ZSwSfP0t6tdBhXG2DrL-109" value="수신자의&lt;br&gt;구독정보와&lt;br&gt;푸시요청정보를&lt;br&gt;취합" style="shape=ext;rounded=1;html=1;whiteSpace=wrap;" parent="8ZSwSfP0t6tdBhXG2DrL-124" vertex="1">
          <mxGeometry x="320" y="374.75" width="120" height="80" as="geometry"/>
        </mxCell>
        <mxCell id="8ZSwSfP0t6tdBhXG2DrL-118" style="edgeStyle=none;rounded=1;jumpStyle=gap;orthogonalLoop=1;jettySize=auto;html=1;entryX=1;entryY=0.388;entryDx=0;entryDy=0;entryPerimeter=0;endArrow=classic;endFill=1;strokeColor=#000000;" parent="8ZSwSfP0t6tdBhXG2DrL-124" source="8ZSwSfP0t6tdBhXG2DrL-79" target="8ZSwSfP0t6tdBhXG2DrL-109" edge="1">
          <mxGeometry relative="1" as="geometry"/>
        </mxCell>
        <mxCell id="8ZSwSfP0t6tdBhXG2DrL-114" style="edgeStyle=none;rounded=1;jumpStyle=gap;orthogonalLoop=1;jettySize=auto;html=1;entryX=0.5;entryY=0;entryDx=0;entryDy=0;endArrow=classic;endFill=1;strokeColor=#000000;" parent="8ZSwSfP0t6tdBhXG2DrL-124" source="8ZSwSfP0t6tdBhXG2DrL-82" target="8ZSwSfP0t6tdBhXG2DrL-109" edge="1">
          <mxGeometry relative="1" as="geometry"/>
        </mxCell>
        <mxCell id="8ZSwSfP0t6tdBhXG2DrL-120" style="edgeStyle=none;rounded=1;jumpStyle=gap;orthogonalLoop=1;jettySize=auto;html=1;endArrow=classic;endFill=1;strokeColor=#000000;exitX=0;exitY=0.5;exitDx=0;exitDy=0;entryX=1;entryY=0.75;entryDx=0;entryDy=0;" parent="8ZSwSfP0t6tdBhXG2DrL-124" source="8ZSwSfP0t6tdBhXG2DrL-107" target="8ZSwSfP0t6tdBhXG2DrL-109" edge="1">
          <mxGeometry relative="1" as="geometry">
            <mxPoint x="440" y="444.75" as="targetPoint"/>
          </mxGeometry>
        </mxCell>
        <mxCell id="8ZSwSfP0t6tdBhXG2DrL-123" value="전송결과&lt;br&gt;기록" style="edgeStyle=none;rounded=1;jumpStyle=gap;orthogonalLoop=1;jettySize=auto;html=1;entryX=1;entryY=0.5;entryDx=0;entryDy=0;endArrow=classic;endFill=1;strokeColor=#000000;" parent="8ZSwSfP0t6tdBhXG2DrL-124" source="8ZSwSfP0t6tdBhXG2DrL-121" target="8ZSwSfP0t6tdBhXG2DrL-84" edge="1">
          <mxGeometry relative="1" as="geometry"/>
        </mxCell>
        <mxCell id="8ZSwSfP0t6tdBhXG2DrL-121" value="" style="shape=image;html=1;verticalAlign=top;verticalLabelPosition=bottom;labelBackgroundColor=#ffffff;imageAspect=0;aspect=fixed;image=https://cdn4.iconfinder.com/data/icons/materia-social-free/24/038_028_share_link_friends_send_android_material-128.png" parent="8ZSwSfP0t6tdBhXG2DrL-124" vertex="1">
          <mxGeometry x="153" y="377.75" width="74" height="74" as="geometry"/>
        </mxCell>
        <mxCell id="8ZSwSfP0t6tdBhXG2DrL-122" value="푸시 발신" style="edgeStyle=none;rounded=1;jumpStyle=gap;orthogonalLoop=1;jettySize=auto;html=1;endArrow=classic;endFill=1;strokeColor=#000000;" parent="8ZSwSfP0t6tdBhXG2DrL-124" source="8ZSwSfP0t6tdBhXG2DrL-109" target="8ZSwSfP0t6tdBhXG2DrL-121" edge="1">
          <mxGeometry relative="1" as="geometry"/>
        </mxCell>
        <mxCell id="8ZSwSfP0t6tdBhXG2DrL-127" value="발신이 실패할 경우 &lt;br&gt;SMS로 전송&lt;br&gt;" style="shape=image;html=1;verticalAlign=top;verticalLabelPosition=bottom;labelBackgroundColor=#ffffff;imageAspect=0;aspect=fixed;image=https://cdn2.iconfinder.com/data/icons/free-mobile-icon-kit/64/SMS.png" parent="8ZSwSfP0t6tdBhXG2DrL-129" vertex="1">
          <mxGeometry x="158" y="534.75" width="64" height="64" as="geometry"/>
        </mxCell>
        <mxCell id="8ZSwSfP0t6tdBhXG2DrL-128" value="발신 실패시" style="edgeStyle=none;rounded=1;jumpStyle=gap;orthogonalLoop=1;jettySize=auto;html=1;endArrow=classic;endFill=1;strokeColor=#000000;" parent="8ZSwSfP0t6tdBhXG2DrL-129" source="8ZSwSfP0t6tdBhXG2DrL-121" target="8ZSwSfP0t6tdBhXG2DrL-127" edge="1">
          <mxGeometry relative="1" as="geometry"/>
        </mxCell>
        <mxCell id="8ZSwSfP0t6tdBhXG2DrL-132" value="&lt;h1&gt;푸시 구독방법&lt;/h1&gt;&lt;p&gt;푸시 구독은 모바일에서&amp;nbsp;&lt;/p&gt;&lt;p&gt;인트라넷 로그인 후&lt;/p&gt;&lt;p&gt;구독신청팝업을 통해 구독할수&amp;nbsp;&lt;/p&gt;&lt;p&gt;있습니다.&lt;/p&gt;" style="text;html=1;strokeColor=none;fillColor=none;spacing=5;spacingTop=-20;whiteSpace=wrap;overflow=hidden;rounded=0;" parent="1" vertex="1">
          <mxGeometry x="680" y="40" width="190" height="154.75" as="geometry"/>
        </mxCell>
      </root>
    </mxGraphModel>
  </diagram>
</mxfile>
